<svg width="20" height="20" viewBox="0 0 20 20" fill="none" xmlns="http://www.w3.org/2000/svg">
<path opacity="0.4" d="M9.99999 18.3327C14.6024 18.3327 18.3333 14.6017 18.3333 9.99935C18.3333 5.39698 14.6024 1.66602 9.99999 1.66602C5.39762 1.66602 1.66666 5.39698 1.66666 9.99935C1.66666 14.6017 5.39762 18.3327 9.99999 18.3327Z" fill="#F04438"/>
<path d="M10.8833 10.0008L12.8 8.08411C13.0417 7.84245 13.0417 7.44245 12.8 7.20078C12.5583 6.95911 12.1583 6.95911 11.9167 7.20078L9.99999 9.11745L8.08332 7.20078C7.84165 6.95911 7.44165 6.95911 7.19999 7.20078C6.95832 7.44245 6.95832 7.84245 7.19999 8.08411L9.11665 10.0008L7.19999 11.9174C6.95832 12.1591 6.95832 12.5591 7.19999 12.8008C7.32499 12.9258 7.48332 12.9841 7.64165 12.9841C7.79999 12.9841 7.95832 12.9258 8.08332 12.8008L9.99999 10.8841L11.9167 12.8008C12.0417 12.9258 12.2 12.9841 12.3583 12.9841C12.5167 12.9841 12.675 12.9258 12.8 12.8008C13.0417 12.5591 13.0417 12.1591 12.8 11.9174L10.8833 10.0008Z" fill="#F04438"/>
</svg>
