<svg width="20" height="20" viewBox="0 0 20 20" fill="none" xmlns="http://www.w3.org/2000/svg">
<path d="M7.49963 17.3125H12.4996C12.5493 17.3125 12.5973 17.3321 12.6324 17.3672C12.6676 17.4024 12.6871 17.4503 12.6871 17.5C12.6871 17.5497 12.6676 17.5976 12.6324 17.6328C12.5973 17.6679 12.5493 17.6875 12.4996 17.6875H7.49963C7.45018 17.6874 7.40284 17.6677 7.3678 17.6328C7.33263 17.5976 7.31213 17.5497 7.31213 17.5C7.31213 17.4503 7.33263 17.4024 7.3678 17.3672C7.40284 17.3323 7.45018 17.3126 7.49963 17.3125ZM9.99963 2.3125C11.5411 2.3125 13.0199 2.92471 14.11 4.01465C15.2 5.1047 15.8121 6.58343 15.8121 8.125C15.8121 10.1953 16.1835 12.0153 16.9518 13.3379V13.3389C17.0236 13.4632 17.061 13.6045 17.0612 13.748C17.0613 13.8916 17.0244 14.0328 16.9528 14.1572L16.9508 14.1602C16.881 14.2829 16.7791 14.3854 16.6569 14.4561C16.5346 14.5266 16.3957 14.5634 16.2545 14.5625H3.74377C3.60256 14.5635 3.46378 14.5266 3.34143 14.4561C3.21893 14.3854 3.11737 14.2831 3.04749 14.1602L3.04651 14.1592L2.99963 14.0625C2.95898 13.9634 2.93773 13.8569 2.93811 13.749C2.93863 13.6055 2.97732 13.4649 3.04944 13.3408V13.3398C3.8185 12.0168 4.18713 10.1963 4.18713 8.125L4.19495 7.83691C4.26619 6.40024 4.8683 5.0366 5.89026 4.01465C6.98019 2.92487 8.45834 2.3126 9.99963 2.3125ZM9.99963 2.6875C8.55766 2.6876 7.17454 3.26064 6.15491 4.28027C5.1353 5.29998 4.56213 6.68298 4.56213 8.125C4.56213 10.1688 4.22349 11.8328 3.59729 13.1064L3.06604 14.1875H16.9332L16.402 13.1064C15.7759 11.8329 15.4371 10.1683 15.4371 8.125C15.4371 6.68302 14.8649 5.29997 13.8453 4.28027C12.8256 3.26054 11.4417 2.6875 9.99963 2.6875Z" stroke="currentColor" stroke-width="1.5"/>
</svg>
 